<mxfile host="app.diagrams.net" modified="2022-10-15T03:39:29.738Z" agent="5.0 (Windows NT 10.0; Win64; x64) AppleWebKit/537.36 (KHTML, like Gecko) Chrome/106.0.0.0 Safari/537.36" etag="Fp50nbGy77zeS-RpXz40" version="20.4.0" type="github">
  <diagram id="C5RBs43oDa-KdzZeNtuy" name="Page-1">
    <mxGraphModel dx="4382" dy="1985" grid="1" gridSize="10" guides="1" tooltips="1" connect="1" arrows="1" fold="1" page="1" pageScale="1" pageWidth="827" pageHeight="1169" math="0" shadow="0">
      <root>
        <mxCell id="WIyWlLk6GJQsqaUBKTNV-0" />
        <mxCell id="WIyWlLk6GJQsqaUBKTNV-1" parent="WIyWlLk6GJQsqaUBKTNV-0" />
        <mxCell id="-YOq-ZwgpyRppSrnesVt-1" value="Start" style="ellipse;whiteSpace=wrap;html=1;" vertex="1" parent="WIyWlLk6GJQsqaUBKTNV-1">
          <mxGeometry x="-70" y="10" width="120" height="50" as="geometry" />
        </mxCell>
        <mxCell id="-YOq-ZwgpyRppSrnesVt-4" value="float, num1, num2, num3" style="rounded=0;whiteSpace=wrap;html=1;" vertex="1" parent="WIyWlLk6GJQsqaUBKTNV-1">
          <mxGeometry x="-80" y="150" width="140" height="40" as="geometry" />
        </mxCell>
        <mxCell id="-YOq-ZwgpyRppSrnesVt-28" value="" style="edgeStyle=orthogonalEdgeStyle;rounded=0;orthogonalLoop=1;jettySize=auto;html=1;" edge="1" parent="WIyWlLk6GJQsqaUBKTNV-1" source="-YOq-ZwgpyRppSrnesVt-6" target="-YOq-ZwgpyRppSrnesVt-27">
          <mxGeometry relative="1" as="geometry" />
        </mxCell>
        <mxCell id="-YOq-ZwgpyRppSrnesVt-6" value="input&amp;nbsp; oper" style="shape=parallelogram;perimeter=parallelogramPerimeter;whiteSpace=wrap;html=1;fixedSize=1;fontFamily=Helvetica;fontSize=12;fontColor=default;align=center;strokeColor=default;fillColor=default;" vertex="1" parent="WIyWlLk6GJQsqaUBKTNV-1">
          <mxGeometry x="-70" y="210" width="120" height="40" as="geometry" />
        </mxCell>
        <mxCell id="-YOq-ZwgpyRppSrnesVt-7" value="" style="endArrow=classic;html=1;rounded=0;exitX=0.5;exitY=1;exitDx=0;exitDy=0;" edge="1" parent="WIyWlLk6GJQsqaUBKTNV-1" source="-YOq-ZwgpyRppSrnesVt-4" target="-YOq-ZwgpyRppSrnesVt-6">
          <mxGeometry width="50" height="50" relative="1" as="geometry">
            <mxPoint x="130" y="380" as="sourcePoint" />
            <mxPoint x="130" y="430" as="targetPoint" />
          </mxGeometry>
        </mxCell>
        <mxCell id="-YOq-ZwgpyRppSrnesVt-49" value="" style="edgeStyle=orthogonalEdgeStyle;rounded=0;orthogonalLoop=1;jettySize=auto;html=1;" edge="1" parent="WIyWlLk6GJQsqaUBKTNV-1" source="-YOq-ZwgpyRppSrnesVt-8" target="-YOq-ZwgpyRppSrnesVt-38">
          <mxGeometry relative="1" as="geometry" />
        </mxCell>
        <mxCell id="-YOq-ZwgpyRppSrnesVt-8" value="input&amp;nbsp; num1" style="shape=parallelogram;perimeter=parallelogramPerimeter;whiteSpace=wrap;html=1;fixedSize=1;fontFamily=Helvetica;fontSize=12;fontColor=default;align=center;strokeColor=default;fillColor=default;" vertex="1" parent="WIyWlLk6GJQsqaUBKTNV-1">
          <mxGeometry x="-70" y="455" width="120" height="50" as="geometry" />
        </mxCell>
        <mxCell id="-YOq-ZwgpyRppSrnesVt-9" value="yes" style="endArrow=classic;html=1;rounded=0;entryX=0.5;entryY=0;entryDx=0;entryDy=0;exitX=0.5;exitY=1;exitDx=0;exitDy=0;startArrow=none;" edge="1" parent="WIyWlLk6GJQsqaUBKTNV-1" source="-YOq-ZwgpyRppSrnesVt-27" target="-YOq-ZwgpyRppSrnesVt-8">
          <mxGeometry x="-0.1111" width="50" height="50" relative="1" as="geometry">
            <mxPoint x="130" y="280" as="sourcePoint" />
            <mxPoint x="180" y="230" as="targetPoint" />
            <mxPoint as="offset" />
          </mxGeometry>
        </mxCell>
        <mxCell id="-YOq-ZwgpyRppSrnesVt-26" value="" style="edgeStyle=orthogonalEdgeStyle;rounded=0;orthogonalLoop=1;jettySize=auto;html=1;" edge="1" parent="WIyWlLk6GJQsqaUBKTNV-1" source="-YOq-ZwgpyRppSrnesVt-3" target="-YOq-ZwgpyRppSrnesVt-4">
          <mxGeometry relative="1" as="geometry" />
        </mxCell>
        <mxCell id="-YOq-ZwgpyRppSrnesVt-3" value="int, oper = 0" style="rounded=0;whiteSpace=wrap;html=1;" vertex="1" parent="WIyWlLk6GJQsqaUBKTNV-1">
          <mxGeometry x="-70" y="80" width="120" height="40" as="geometry" />
        </mxCell>
        <mxCell id="-YOq-ZwgpyRppSrnesVt-22" value="" style="endArrow=none;html=1;rounded=0;exitX=0.5;exitY=1;exitDx=0;exitDy=0;" edge="1" parent="WIyWlLk6GJQsqaUBKTNV-1" source="-YOq-ZwgpyRppSrnesVt-1" target="-YOq-ZwgpyRppSrnesVt-3">
          <mxGeometry width="50" height="50" relative="1" as="geometry">
            <mxPoint x="-10" y="-140" as="sourcePoint" />
            <mxPoint x="-10" y="210" as="targetPoint" />
          </mxGeometry>
        </mxCell>
        <mxCell id="-YOq-ZwgpyRppSrnesVt-29" value="No" style="edgeStyle=orthogonalEdgeStyle;rounded=0;orthogonalLoop=1;jettySize=auto;html=1;exitX=1;exitY=0.5;exitDx=0;exitDy=0;entryX=1;entryY=0.5;entryDx=0;entryDy=0;" edge="1" parent="WIyWlLk6GJQsqaUBKTNV-1" source="-YOq-ZwgpyRppSrnesVt-27" target="-YOq-ZwgpyRppSrnesVt-6">
          <mxGeometry relative="1" as="geometry">
            <mxPoint x="120" y="340" as="targetPoint" />
            <Array as="points">
              <mxPoint x="70" y="330" />
              <mxPoint x="70" y="230" />
            </Array>
          </mxGeometry>
        </mxCell>
        <mxCell id="-YOq-ZwgpyRppSrnesVt-27" value="Is oper&lt;br&gt;&amp;lt;9 and &amp;gt;0" style="rhombus;whiteSpace=wrap;html=1;rounded=0;" vertex="1" parent="WIyWlLk6GJQsqaUBKTNV-1">
          <mxGeometry x="-50" y="290" width="80" height="80" as="geometry" />
        </mxCell>
        <mxCell id="-YOq-ZwgpyRppSrnesVt-30" value="" style="endArrow=none;html=1;rounded=0;entryX=0.5;entryY=0;entryDx=0;entryDy=0;exitX=0.5;exitY=1;exitDx=0;exitDy=0;" edge="1" parent="WIyWlLk6GJQsqaUBKTNV-1" source="-YOq-ZwgpyRppSrnesVt-6" target="-YOq-ZwgpyRppSrnesVt-27">
          <mxGeometry width="50" height="50" relative="1" as="geometry">
            <mxPoint x="-10" y="320" as="sourcePoint" />
            <mxPoint x="-10" y="410" as="targetPoint" />
          </mxGeometry>
        </mxCell>
        <mxCell id="-YOq-ZwgpyRppSrnesVt-53" value="" style="edgeStyle=orthogonalEdgeStyle;rounded=0;orthogonalLoop=1;jettySize=auto;html=1;" edge="1" parent="WIyWlLk6GJQsqaUBKTNV-1" source="-YOq-ZwgpyRppSrnesVt-41" target="-YOq-ZwgpyRppSrnesVt-52">
          <mxGeometry relative="1" as="geometry" />
        </mxCell>
        <mxCell id="-YOq-ZwgpyRppSrnesVt-41" value="input num2" style="shape=parallelogram;perimeter=parallelogramPerimeter;whiteSpace=wrap;html=1;fixedSize=1;fontFamily=Helvetica;fontSize=12;fontColor=default;align=center;strokeColor=default;fillColor=default;" vertex="1" parent="WIyWlLk6GJQsqaUBKTNV-1">
          <mxGeometry x="-70" y="640" width="120" height="60" as="geometry" />
        </mxCell>
        <mxCell id="-YOq-ZwgpyRppSrnesVt-50" value="No" style="edgeStyle=orthogonalEdgeStyle;rounded=0;orthogonalLoop=1;jettySize=auto;html=1;exitX=0.5;exitY=0;exitDx=0;exitDy=0;entryX=0.692;entryY=0.02;entryDx=0;entryDy=0;entryPerimeter=0;" edge="1" parent="WIyWlLk6GJQsqaUBKTNV-1" source="-YOq-ZwgpyRppSrnesVt-38" target="-YOq-ZwgpyRppSrnesVt-8">
          <mxGeometry relative="1" as="geometry" />
        </mxCell>
        <mxCell id="-YOq-ZwgpyRppSrnesVt-51" value="Yes" style="edgeStyle=orthogonalEdgeStyle;rounded=0;orthogonalLoop=1;jettySize=auto;html=1;exitX=0;exitY=1;exitDx=0;exitDy=0;entryX=0.5;entryY=0;entryDx=0;entryDy=0;" edge="1" parent="WIyWlLk6GJQsqaUBKTNV-1" source="-YOq-ZwgpyRppSrnesVt-38" target="-YOq-ZwgpyRppSrnesVt-41">
          <mxGeometry x="0.0909" relative="1" as="geometry">
            <Array as="points">
              <mxPoint x="135" y="530" />
              <mxPoint x="-10" y="530" />
            </Array>
            <mxPoint as="offset" />
          </mxGeometry>
        </mxCell>
        <mxCell id="-YOq-ZwgpyRppSrnesVt-38" value="Is num1 float&lt;br&gt;value" style="rhombus;whiteSpace=wrap;html=1;rounded=0;" vertex="1" parent="WIyWlLk6GJQsqaUBKTNV-1">
          <mxGeometry x="110" y="430" width="100" height="100" as="geometry" />
        </mxCell>
        <mxCell id="-YOq-ZwgpyRppSrnesVt-54" value="No" style="edgeStyle=orthogonalEdgeStyle;rounded=0;orthogonalLoop=1;jettySize=auto;html=1;exitX=0.5;exitY=0;exitDx=0;exitDy=0;entryX=0.75;entryY=0;entryDx=0;entryDy=0;" edge="1" parent="WIyWlLk6GJQsqaUBKTNV-1" source="-YOq-ZwgpyRppSrnesVt-52" target="-YOq-ZwgpyRppSrnesVt-41">
          <mxGeometry relative="1" as="geometry" />
        </mxCell>
        <mxCell id="-YOq-ZwgpyRppSrnesVt-59" value="Yes" style="edgeStyle=orthogonalEdgeStyle;rounded=0;orthogonalLoop=1;jettySize=auto;html=1;" edge="1" parent="WIyWlLk6GJQsqaUBKTNV-1" source="-YOq-ZwgpyRppSrnesVt-52" target="-YOq-ZwgpyRppSrnesVt-58">
          <mxGeometry relative="1" as="geometry" />
        </mxCell>
        <mxCell id="-YOq-ZwgpyRppSrnesVt-52" value="Is num2 float&lt;br&gt;value" style="rhombus;whiteSpace=wrap;html=1;rounded=0;" vertex="1" parent="WIyWlLk6GJQsqaUBKTNV-1">
          <mxGeometry x="110" y="620" width="100" height="100" as="geometry" />
        </mxCell>
        <mxCell id="-YOq-ZwgpyRppSrnesVt-61" value="Yes" style="edgeStyle=orthogonalEdgeStyle;rounded=0;orthogonalLoop=1;jettySize=auto;html=1;" edge="1" parent="WIyWlLk6GJQsqaUBKTNV-1" source="-YOq-ZwgpyRppSrnesVt-58" target="-YOq-ZwgpyRppSrnesVt-60">
          <mxGeometry relative="1" as="geometry" />
        </mxCell>
        <mxCell id="-YOq-ZwgpyRppSrnesVt-63" value="No" style="edgeStyle=orthogonalEdgeStyle;rounded=0;orthogonalLoop=1;jettySize=auto;html=1;" edge="1" parent="WIyWlLk6GJQsqaUBKTNV-1" source="-YOq-ZwgpyRppSrnesVt-58" target="-YOq-ZwgpyRppSrnesVt-62">
          <mxGeometry relative="1" as="geometry" />
        </mxCell>
        <mxCell id="-YOq-ZwgpyRppSrnesVt-58" value="Is oper==1" style="rhombus;whiteSpace=wrap;html=1;rounded=0;" vertex="1" parent="WIyWlLk6GJQsqaUBKTNV-1">
          <mxGeometry x="530" y="740" width="80" height="80" as="geometry" />
        </mxCell>
        <mxCell id="-YOq-ZwgpyRppSrnesVt-129" value="" style="edgeStyle=orthogonalEdgeStyle;rounded=0;orthogonalLoop=1;jettySize=auto;html=1;fontFamily=Helvetica;fontSize=12;fontColor=default;" edge="1" parent="WIyWlLk6GJQsqaUBKTNV-1" source="-YOq-ZwgpyRppSrnesVt-60" target="-YOq-ZwgpyRppSrnesVt-128">
          <mxGeometry relative="1" as="geometry" />
        </mxCell>
        <mxCell id="-YOq-ZwgpyRppSrnesVt-60" value="num1 + num2 = num3" style="whiteSpace=wrap;html=1;rounded=0;" vertex="1" parent="WIyWlLk6GJQsqaUBKTNV-1">
          <mxGeometry x="510" y="910" width="120" height="60" as="geometry" />
        </mxCell>
        <mxCell id="-YOq-ZwgpyRppSrnesVt-65" value="Yes" style="edgeStyle=orthogonalEdgeStyle;rounded=0;orthogonalLoop=1;jettySize=auto;html=1;" edge="1" parent="WIyWlLk6GJQsqaUBKTNV-1" source="-YOq-ZwgpyRppSrnesVt-62" target="-YOq-ZwgpyRppSrnesVt-64">
          <mxGeometry relative="1" as="geometry" />
        </mxCell>
        <mxCell id="-YOq-ZwgpyRppSrnesVt-67" value="No" style="edgeStyle=orthogonalEdgeStyle;rounded=0;orthogonalLoop=1;jettySize=auto;html=1;" edge="1" parent="WIyWlLk6GJQsqaUBKTNV-1" source="-YOq-ZwgpyRppSrnesVt-62" target="-YOq-ZwgpyRppSrnesVt-66">
          <mxGeometry relative="1" as="geometry" />
        </mxCell>
        <mxCell id="-YOq-ZwgpyRppSrnesVt-62" value="Is oper==2" style="rhombus;whiteSpace=wrap;html=1;rounded=0;" vertex="1" parent="WIyWlLk6GJQsqaUBKTNV-1">
          <mxGeometry x="370" y="740" width="80" height="80" as="geometry" />
        </mxCell>
        <mxCell id="-YOq-ZwgpyRppSrnesVt-125" value="" style="edgeStyle=orthogonalEdgeStyle;rounded=0;orthogonalLoop=1;jettySize=auto;html=1;fontFamily=Helvetica;fontSize=12;fontColor=default;exitX=0.75;exitY=1;exitDx=0;exitDy=0;" edge="1" parent="WIyWlLk6GJQsqaUBKTNV-1" source="-YOq-ZwgpyRppSrnesVt-64" target="-YOq-ZwgpyRppSrnesVt-124">
          <mxGeometry relative="1" as="geometry">
            <Array as="points">
              <mxPoint x="410" y="970" />
              <mxPoint x="410" y="1000" />
              <mxPoint x="550" y="1000" />
            </Array>
          </mxGeometry>
        </mxCell>
        <mxCell id="-YOq-ZwgpyRppSrnesVt-64" value="num1 - num2 = num3" style="whiteSpace=wrap;html=1;rounded=0;" vertex="1" parent="WIyWlLk6GJQsqaUBKTNV-1">
          <mxGeometry x="350" y="910" width="120" height="60" as="geometry" />
        </mxCell>
        <mxCell id="-YOq-ZwgpyRppSrnesVt-69" value="Yes" style="edgeStyle=orthogonalEdgeStyle;rounded=0;orthogonalLoop=1;jettySize=auto;html=1;" edge="1" parent="WIyWlLk6GJQsqaUBKTNV-1" source="-YOq-ZwgpyRppSrnesVt-66" target="-YOq-ZwgpyRppSrnesVt-68">
          <mxGeometry relative="1" as="geometry" />
        </mxCell>
        <mxCell id="-YOq-ZwgpyRppSrnesVt-71" value="No" style="edgeStyle=orthogonalEdgeStyle;rounded=0;orthogonalLoop=1;jettySize=auto;html=1;" edge="1" parent="WIyWlLk6GJQsqaUBKTNV-1" source="-YOq-ZwgpyRppSrnesVt-66" target="-YOq-ZwgpyRppSrnesVt-70">
          <mxGeometry relative="1" as="geometry" />
        </mxCell>
        <mxCell id="-YOq-ZwgpyRppSrnesVt-66" value="Is oper==3" style="rhombus;whiteSpace=wrap;html=1;rounded=0;" vertex="1" parent="WIyWlLk6GJQsqaUBKTNV-1">
          <mxGeometry x="210" y="740" width="80" height="80" as="geometry" />
        </mxCell>
        <mxCell id="-YOq-ZwgpyRppSrnesVt-123" value="" style="edgeStyle=orthogonalEdgeStyle;rounded=0;orthogonalLoop=1;jettySize=auto;html=1;fontFamily=Helvetica;fontSize=12;fontColor=default;" edge="1" parent="WIyWlLk6GJQsqaUBKTNV-1" source="-YOq-ZwgpyRppSrnesVt-68" target="-YOq-ZwgpyRppSrnesVt-122">
          <mxGeometry relative="1" as="geometry">
            <Array as="points">
              <mxPoint x="250" y="1000" />
              <mxPoint x="380" y="1000" />
            </Array>
          </mxGeometry>
        </mxCell>
        <mxCell id="-YOq-ZwgpyRppSrnesVt-68" value="num1 * num2 = num3" style="whiteSpace=wrap;html=1;rounded=0;" vertex="1" parent="WIyWlLk6GJQsqaUBKTNV-1">
          <mxGeometry x="190" y="910" width="120" height="60" as="geometry" />
        </mxCell>
        <mxCell id="-YOq-ZwgpyRppSrnesVt-73" value="Yes" style="edgeStyle=orthogonalEdgeStyle;rounded=0;orthogonalLoop=1;jettySize=auto;html=1;" edge="1" parent="WIyWlLk6GJQsqaUBKTNV-1" source="-YOq-ZwgpyRppSrnesVt-70" target="-YOq-ZwgpyRppSrnesVt-72">
          <mxGeometry relative="1" as="geometry" />
        </mxCell>
        <mxCell id="-YOq-ZwgpyRppSrnesVt-75" value="No" style="edgeStyle=orthogonalEdgeStyle;rounded=0;orthogonalLoop=1;jettySize=auto;html=1;" edge="1" parent="WIyWlLk6GJQsqaUBKTNV-1" source="-YOq-ZwgpyRppSrnesVt-70" target="-YOq-ZwgpyRppSrnesVt-74">
          <mxGeometry relative="1" as="geometry" />
        </mxCell>
        <mxCell id="-YOq-ZwgpyRppSrnesVt-70" value="Is oper==4" style="rhombus;whiteSpace=wrap;html=1;rounded=0;" vertex="1" parent="WIyWlLk6GJQsqaUBKTNV-1">
          <mxGeometry x="50" y="740" width="80" height="80" as="geometry" />
        </mxCell>
        <mxCell id="-YOq-ZwgpyRppSrnesVt-121" value="" style="edgeStyle=orthogonalEdgeStyle;rounded=0;orthogonalLoop=1;jettySize=auto;html=1;fontFamily=Helvetica;fontSize=12;fontColor=default;" edge="1" parent="WIyWlLk6GJQsqaUBKTNV-1" source="-YOq-ZwgpyRppSrnesVt-72" target="-YOq-ZwgpyRppSrnesVt-120">
          <mxGeometry relative="1" as="geometry">
            <Array as="points">
              <mxPoint x="90" y="1000" />
              <mxPoint x="200" y="1000" />
            </Array>
          </mxGeometry>
        </mxCell>
        <mxCell id="-YOq-ZwgpyRppSrnesVt-72" value="num1 / num2 = num3" style="whiteSpace=wrap;html=1;rounded=0;" vertex="1" parent="WIyWlLk6GJQsqaUBKTNV-1">
          <mxGeometry x="30" y="910" width="120" height="60" as="geometry" />
        </mxCell>
        <mxCell id="-YOq-ZwgpyRppSrnesVt-77" value="Yes" style="edgeStyle=orthogonalEdgeStyle;rounded=0;orthogonalLoop=1;jettySize=auto;html=1;" edge="1" parent="WIyWlLk6GJQsqaUBKTNV-1" source="-YOq-ZwgpyRppSrnesVt-74" target="-YOq-ZwgpyRppSrnesVt-76">
          <mxGeometry relative="1" as="geometry" />
        </mxCell>
        <mxCell id="-YOq-ZwgpyRppSrnesVt-85" value="No" style="edgeStyle=orthogonalEdgeStyle;rounded=0;orthogonalLoop=1;jettySize=auto;html=1;" edge="1" parent="WIyWlLk6GJQsqaUBKTNV-1" source="-YOq-ZwgpyRppSrnesVt-74" target="-YOq-ZwgpyRppSrnesVt-84">
          <mxGeometry relative="1" as="geometry" />
        </mxCell>
        <mxCell id="-YOq-ZwgpyRppSrnesVt-74" value="is oper==5" style="rhombus;whiteSpace=wrap;html=1;rounded=0;" vertex="1" parent="WIyWlLk6GJQsqaUBKTNV-1">
          <mxGeometry x="-110" y="740" width="80" height="80" as="geometry" />
        </mxCell>
        <mxCell id="-YOq-ZwgpyRppSrnesVt-79" value="" style="edgeStyle=orthogonalEdgeStyle;rounded=0;orthogonalLoop=1;jettySize=auto;html=1;" edge="1" parent="WIyWlLk6GJQsqaUBKTNV-1" source="-YOq-ZwgpyRppSrnesVt-76" target="-YOq-ZwgpyRppSrnesVt-78">
          <mxGeometry relative="1" as="geometry" />
        </mxCell>
        <mxCell id="-YOq-ZwgpyRppSrnesVt-76" value="num1&lt;sup&gt;num2&lt;/sup&gt; = num3" style="whiteSpace=wrap;html=1;rounded=0;" vertex="1" parent="WIyWlLk6GJQsqaUBKTNV-1">
          <mxGeometry x="-130" y="910" width="120" height="60" as="geometry" />
        </mxCell>
        <mxCell id="-YOq-ZwgpyRppSrnesVt-81" value="No" style="edgeStyle=orthogonalEdgeStyle;rounded=0;orthogonalLoop=1;jettySize=auto;html=1;" edge="1" parent="WIyWlLk6GJQsqaUBKTNV-1" source="-YOq-ZwgpyRppSrnesVt-78" target="-YOq-ZwgpyRppSrnesVt-80">
          <mxGeometry relative="1" as="geometry" />
        </mxCell>
        <mxCell id="-YOq-ZwgpyRppSrnesVt-83" value="Yes" style="edgeStyle=orthogonalEdgeStyle;rounded=0;orthogonalLoop=1;jettySize=auto;html=1;" edge="1" parent="WIyWlLk6GJQsqaUBKTNV-1" source="-YOq-ZwgpyRppSrnesVt-78" target="-YOq-ZwgpyRppSrnesVt-82">
          <mxGeometry relative="1" as="geometry" />
        </mxCell>
        <mxCell id="-YOq-ZwgpyRppSrnesVt-78" value="OverFlowError?" style="rhombus;whiteSpace=wrap;html=1;rounded=0;" vertex="1" parent="WIyWlLk6GJQsqaUBKTNV-1">
          <mxGeometry x="-120" y="1020" width="100" height="100" as="geometry" />
        </mxCell>
        <mxCell id="-YOq-ZwgpyRppSrnesVt-139" style="edgeStyle=orthogonalEdgeStyle;rounded=0;orthogonalLoop=1;jettySize=auto;html=1;exitX=0.5;exitY=1;exitDx=0;exitDy=0;entryX=0.25;entryY=0;entryDx=0;entryDy=0;fontFamily=Helvetica;fontSize=12;fontColor=default;" edge="1" parent="WIyWlLk6GJQsqaUBKTNV-1" source="-YOq-ZwgpyRppSrnesVt-80" target="-YOq-ZwgpyRppSrnesVt-119">
          <mxGeometry relative="1" as="geometry" />
        </mxCell>
        <mxCell id="-YOq-ZwgpyRppSrnesVt-80" value="print num3" style="whiteSpace=wrap;html=1;rounded=0;" vertex="1" parent="WIyWlLk6GJQsqaUBKTNV-1">
          <mxGeometry x="-130" y="1210" width="120" height="60" as="geometry" />
        </mxCell>
        <mxCell id="-YOq-ZwgpyRppSrnesVt-140" style="edgeStyle=orthogonalEdgeStyle;rounded=0;orthogonalLoop=1;jettySize=auto;html=1;exitX=0.5;exitY=1;exitDx=0;exitDy=0;entryX=0.5;entryY=0;entryDx=0;entryDy=0;fontFamily=Helvetica;fontSize=12;fontColor=default;" edge="1" parent="WIyWlLk6GJQsqaUBKTNV-1" source="-YOq-ZwgpyRppSrnesVt-82" target="-YOq-ZwgpyRppSrnesVt-119">
          <mxGeometry relative="1" as="geometry">
            <Array as="points">
              <mxPoint x="30" y="1270" />
              <mxPoint x="30" y="1375" />
              <mxPoint y="1375" />
            </Array>
          </mxGeometry>
        </mxCell>
        <mxCell id="-YOq-ZwgpyRppSrnesVt-82" value="print&quot;OverFlowError: result too large&quot;" style="whiteSpace=wrap;html=1;rounded=0;" vertex="1" parent="WIyWlLk6GJQsqaUBKTNV-1">
          <mxGeometry x="10" y="1210" width="120" height="60" as="geometry" />
        </mxCell>
        <mxCell id="-YOq-ZwgpyRppSrnesVt-87" value="Yes" style="edgeStyle=orthogonalEdgeStyle;rounded=0;orthogonalLoop=1;jettySize=auto;html=1;" edge="1" parent="WIyWlLk6GJQsqaUBKTNV-1" source="-YOq-ZwgpyRppSrnesVt-84">
          <mxGeometry relative="1" as="geometry">
            <mxPoint x="-230" y="900" as="targetPoint" />
          </mxGeometry>
        </mxCell>
        <mxCell id="-YOq-ZwgpyRppSrnesVt-97" value="No" style="edgeStyle=orthogonalEdgeStyle;rounded=0;orthogonalLoop=1;jettySize=auto;html=1;fontSize=11;" edge="1" parent="WIyWlLk6GJQsqaUBKTNV-1" source="-YOq-ZwgpyRppSrnesVt-84" target="-YOq-ZwgpyRppSrnesVt-96">
          <mxGeometry relative="1" as="geometry" />
        </mxCell>
        <mxCell id="-YOq-ZwgpyRppSrnesVt-84" value="is oper==6" style="rhombus;whiteSpace=wrap;html=1;rounded=0;" vertex="1" parent="WIyWlLk6GJQsqaUBKTNV-1">
          <mxGeometry x="-270" y="740" width="80" height="80" as="geometry" />
        </mxCell>
        <mxCell id="-YOq-ZwgpyRppSrnesVt-89" value="" style="edgeStyle=orthogonalEdgeStyle;rounded=0;orthogonalLoop=1;jettySize=auto;html=1;fontSize=12;" edge="1" parent="WIyWlLk6GJQsqaUBKTNV-1" target="-YOq-ZwgpyRppSrnesVt-88">
          <mxGeometry relative="1" as="geometry">
            <mxPoint x="-270" y="940" as="sourcePoint" />
          </mxGeometry>
        </mxCell>
        <mxCell id="-YOq-ZwgpyRppSrnesVt-91" value="No" style="edgeStyle=orthogonalEdgeStyle;rounded=0;orthogonalLoop=1;jettySize=auto;html=1;fontSize=12;" edge="1" parent="WIyWlLk6GJQsqaUBKTNV-1" source="-YOq-ZwgpyRppSrnesVt-88" target="-YOq-ZwgpyRppSrnesVt-90">
          <mxGeometry relative="1" as="geometry" />
        </mxCell>
        <mxCell id="-YOq-ZwgpyRppSrnesVt-93" value="Yes" style="edgeStyle=orthogonalEdgeStyle;rounded=0;orthogonalLoop=1;jettySize=auto;html=1;fontSize=11;" edge="1" parent="WIyWlLk6GJQsqaUBKTNV-1" source="-YOq-ZwgpyRppSrnesVt-88" target="-YOq-ZwgpyRppSrnesVt-92">
          <mxGeometry relative="1" as="geometry" />
        </mxCell>
        <mxCell id="-YOq-ZwgpyRppSrnesVt-88" value="Is num3 complex?" style="rhombus;whiteSpace=wrap;html=1;rounded=0;" vertex="1" parent="WIyWlLk6GJQsqaUBKTNV-1">
          <mxGeometry x="-370" y="1020" width="80" height="80" as="geometry" />
        </mxCell>
        <mxCell id="-YOq-ZwgpyRppSrnesVt-137" style="edgeStyle=orthogonalEdgeStyle;rounded=0;orthogonalLoop=1;jettySize=auto;html=1;exitX=0.5;exitY=1;exitDx=0;exitDy=0;entryX=0;entryY=0.5;entryDx=0;entryDy=0;fontFamily=Helvetica;fontSize=12;fontColor=default;" edge="1" parent="WIyWlLk6GJQsqaUBKTNV-1" source="-YOq-ZwgpyRppSrnesVt-90" target="-YOq-ZwgpyRppSrnesVt-119">
          <mxGeometry relative="1" as="geometry" />
        </mxCell>
        <mxCell id="-YOq-ZwgpyRppSrnesVt-90" value="print num3" style="whiteSpace=wrap;html=1;rounded=0;" vertex="1" parent="WIyWlLk6GJQsqaUBKTNV-1">
          <mxGeometry x="-430" y="1210" width="120" height="60" as="geometry" />
        </mxCell>
        <mxCell id="-YOq-ZwgpyRppSrnesVt-138" style="edgeStyle=orthogonalEdgeStyle;rounded=0;orthogonalLoop=1;jettySize=auto;html=1;exitX=0.5;exitY=1;exitDx=0;exitDy=0;entryX=0;entryY=0.25;entryDx=0;entryDy=0;fontFamily=Helvetica;fontSize=12;fontColor=default;" edge="1" parent="WIyWlLk6GJQsqaUBKTNV-1" source="-YOq-ZwgpyRppSrnesVt-92" target="-YOq-ZwgpyRppSrnesVt-119">
          <mxGeometry relative="1" as="geometry" />
        </mxCell>
        <mxCell id="-YOq-ZwgpyRppSrnesVt-92" value="print imaginary num3" style="whiteSpace=wrap;html=1;rounded=0;" vertex="1" parent="WIyWlLk6GJQsqaUBKTNV-1">
          <mxGeometry x="-280" y="1210" width="120" height="60" as="geometry" />
        </mxCell>
        <mxCell id="-YOq-ZwgpyRppSrnesVt-102" value="Yes" style="edgeStyle=orthogonalEdgeStyle;rounded=0;orthogonalLoop=1;jettySize=auto;html=1;fontFamily=Helvetica;fontSize=12;fontColor=default;" edge="1" parent="WIyWlLk6GJQsqaUBKTNV-1" source="-YOq-ZwgpyRppSrnesVt-96" target="-YOq-ZwgpyRppSrnesVt-101">
          <mxGeometry relative="1" as="geometry" />
        </mxCell>
        <mxCell id="-YOq-ZwgpyRppSrnesVt-104" value="No" style="edgeStyle=orthogonalEdgeStyle;rounded=0;orthogonalLoop=1;jettySize=auto;html=1;fontFamily=Helvetica;fontSize=12;fontColor=default;" edge="1" parent="WIyWlLk6GJQsqaUBKTNV-1" source="-YOq-ZwgpyRppSrnesVt-96" target="-YOq-ZwgpyRppSrnesVt-103">
          <mxGeometry relative="1" as="geometry" />
        </mxCell>
        <mxCell id="-YOq-ZwgpyRppSrnesVt-96" value="is oper==7" style="rhombus;whiteSpace=wrap;html=1;rounded=0;" vertex="1" parent="WIyWlLk6GJQsqaUBKTNV-1">
          <mxGeometry x="-440" y="740" width="80" height="80" as="geometry" />
        </mxCell>
        <mxCell id="-YOq-ZwgpyRppSrnesVt-98" value="&lt;span style=&quot;color: rgb(232, 234, 237); font-family: Roboto, arial, sans-serif; font-size: 11px; text-align: left;&quot;&gt;√num1 = num3&lt;/span&gt;" style="rounded=0;whiteSpace=wrap;html=1;strokeColor=default;fontFamily=Helvetica;fontSize=12;fontColor=default;fillColor=default;" vertex="1" parent="WIyWlLk6GJQsqaUBKTNV-1">
          <mxGeometry x="-290" y="900" width="120" height="60" as="geometry" />
        </mxCell>
        <mxCell id="-YOq-ZwgpyRppSrnesVt-132" style="edgeStyle=orthogonalEdgeStyle;rounded=0;orthogonalLoop=1;jettySize=auto;html=1;exitX=0.75;exitY=1;exitDx=0;exitDy=0;entryX=1;entryY=0.25;entryDx=0;entryDy=0;fontFamily=Helvetica;fontSize=12;fontColor=default;" edge="1" parent="WIyWlLk6GJQsqaUBKTNV-1" source="-YOq-ZwgpyRppSrnesVt-101" target="-YOq-ZwgpyRppSrnesVt-126">
          <mxGeometry relative="1" as="geometry">
            <Array as="points">
              <mxPoint x="-390" y="960" />
              <mxPoint x="-390" y="1190" />
              <mxPoint x="-540" y="1190" />
              <mxPoint x="-540" y="1213" />
            </Array>
          </mxGeometry>
        </mxCell>
        <mxCell id="-YOq-ZwgpyRppSrnesVt-101" value="&lt;span style=&quot;color: rgb(232, 234, 237); font-family: Roboto, arial, sans-serif; font-style: normal; font-variant-ligatures: normal; font-variant-caps: normal; font-weight: 400; letter-spacing: normal; orphans: 2; text-align: left; text-indent: 0px; text-transform: none; widows: 2; word-spacing: 0px; -webkit-text-stroke-width: 0px; background-color: rgb(42, 42, 42); text-decoration-thickness: initial; text-decoration-style: initial; text-decoration-color: initial; float: none; display: inline !important;&quot;&gt;&lt;font size=&quot;1&quot;&gt;&lt;sup&gt;num2&lt;/sup&gt;&lt;/font&gt;&lt;/span&gt;&lt;span style=&quot;color: rgb(232, 234, 237); font-family: Roboto, arial, sans-serif; font-size: 11px; font-style: normal; font-variant-ligatures: normal; font-variant-caps: normal; font-weight: 400; letter-spacing: normal; orphans: 2; text-align: left; text-indent: 0px; text-transform: none; widows: 2; word-spacing: 0px; -webkit-text-stroke-width: 0px; background-color: rgb(42, 42, 42); text-decoration-thickness: initial; text-decoration-style: initial; text-decoration-color: initial; float: none; display: inline !important;&quot;&gt;√num1 = num3&lt;/span&gt;&lt;br&gt;" style="whiteSpace=wrap;html=1;rounded=0;" vertex="1" parent="WIyWlLk6GJQsqaUBKTNV-1">
          <mxGeometry x="-460" y="900" width="120" height="60" as="geometry" />
        </mxCell>
        <mxCell id="-YOq-ZwgpyRppSrnesVt-106" value="Yes" style="edgeStyle=orthogonalEdgeStyle;rounded=0;orthogonalLoop=1;jettySize=auto;html=1;fontFamily=Helvetica;fontSize=12;fontColor=default;" edge="1" parent="WIyWlLk6GJQsqaUBKTNV-1" source="-YOq-ZwgpyRppSrnesVt-103" target="-YOq-ZwgpyRppSrnesVt-105">
          <mxGeometry relative="1" as="geometry" />
        </mxCell>
        <mxCell id="-YOq-ZwgpyRppSrnesVt-103" value="is oper==8" style="rhombus;whiteSpace=wrap;html=1;rounded=0;" vertex="1" parent="WIyWlLk6GJQsqaUBKTNV-1">
          <mxGeometry x="-600" y="740" width="80" height="80" as="geometry" />
        </mxCell>
        <mxCell id="-YOq-ZwgpyRppSrnesVt-108" value="" style="edgeStyle=orthogonalEdgeStyle;rounded=0;orthogonalLoop=1;jettySize=auto;html=1;fontFamily=Helvetica;fontSize=12;fontColor=default;" edge="1" parent="WIyWlLk6GJQsqaUBKTNV-1" source="-YOq-ZwgpyRppSrnesVt-105" target="-YOq-ZwgpyRppSrnesVt-107">
          <mxGeometry relative="1" as="geometry" />
        </mxCell>
        <mxCell id="-YOq-ZwgpyRppSrnesVt-105" value="print &quot;exit program&quot;" style="whiteSpace=wrap;html=1;rounded=0;" vertex="1" parent="WIyWlLk6GJQsqaUBKTNV-1">
          <mxGeometry x="-620" y="900" width="120" height="60" as="geometry" />
        </mxCell>
        <mxCell id="-YOq-ZwgpyRppSrnesVt-110" value="" style="edgeStyle=orthogonalEdgeStyle;rounded=0;orthogonalLoop=1;jettySize=auto;html=1;fontFamily=Helvetica;fontSize=12;fontColor=default;entryX=0;entryY=0.5;entryDx=0;entryDy=0;" edge="1" parent="WIyWlLk6GJQsqaUBKTNV-1" source="-YOq-ZwgpyRppSrnesVt-107" target="-YOq-ZwgpyRppSrnesVt-109">
          <mxGeometry relative="1" as="geometry" />
        </mxCell>
        <mxCell id="-YOq-ZwgpyRppSrnesVt-113" value="" style="edgeStyle=orthogonalEdgeStyle;rounded=0;orthogonalLoop=1;jettySize=auto;html=1;fontFamily=Helvetica;fontSize=12;fontColor=default;" edge="1" parent="WIyWlLk6GJQsqaUBKTNV-1" source="-YOq-ZwgpyRppSrnesVt-107" target="-YOq-ZwgpyRppSrnesVt-112">
          <mxGeometry relative="1" as="geometry" />
        </mxCell>
        <mxCell id="-YOq-ZwgpyRppSrnesVt-117" value="" style="edgeStyle=orthogonalEdgeStyle;rounded=0;orthogonalLoop=1;jettySize=auto;html=1;fontFamily=Helvetica;fontSize=12;fontColor=default;" edge="1" parent="WIyWlLk6GJQsqaUBKTNV-1" source="-YOq-ZwgpyRppSrnesVt-107" target="-YOq-ZwgpyRppSrnesVt-116">
          <mxGeometry relative="1" as="geometry" />
        </mxCell>
        <mxCell id="-YOq-ZwgpyRppSrnesVt-107" value="input(&quot;are you sure? y/n&quot;)" style="whiteSpace=wrap;html=1;rounded=0;" vertex="1" parent="WIyWlLk6GJQsqaUBKTNV-1">
          <mxGeometry x="-620" y="1040" width="120" height="60" as="geometry" />
        </mxCell>
        <mxCell id="-YOq-ZwgpyRppSrnesVt-111" style="edgeStyle=orthogonalEdgeStyle;rounded=0;orthogonalLoop=1;jettySize=auto;html=1;exitX=0.5;exitY=0;exitDx=0;exitDy=0;entryX=0.75;entryY=0;entryDx=0;entryDy=0;fontFamily=Helvetica;fontSize=12;fontColor=default;" edge="1" parent="WIyWlLk6GJQsqaUBKTNV-1" source="-YOq-ZwgpyRppSrnesVt-109" target="-YOq-ZwgpyRppSrnesVt-107">
          <mxGeometry relative="1" as="geometry">
            <Array as="points">
              <mxPoint x="-436" y="1020" />
              <mxPoint x="-530" y="1020" />
            </Array>
          </mxGeometry>
        </mxCell>
        <mxCell id="-YOq-ZwgpyRppSrnesVt-109" value="!= &quot;y&quot; or &quot;n&quot;" style="shape=parallelogram;perimeter=parallelogramPerimeter;whiteSpace=wrap;html=1;fixedSize=1;fontFamily=Helvetica;fontSize=12;fontColor=default;align=center;strokeColor=default;fillColor=default;" vertex="1" parent="WIyWlLk6GJQsqaUBKTNV-1">
          <mxGeometry x="-490" y="1055" width="93" height="30" as="geometry" />
        </mxCell>
        <mxCell id="-YOq-ZwgpyRppSrnesVt-118" style="edgeStyle=orthogonalEdgeStyle;rounded=0;orthogonalLoop=1;jettySize=auto;html=1;exitX=0.5;exitY=0;exitDx=0;exitDy=0;entryX=0;entryY=0.5;entryDx=0;entryDy=0;fontFamily=Helvetica;fontSize=12;fontColor=default;" edge="1" parent="WIyWlLk6GJQsqaUBKTNV-1" source="-YOq-ZwgpyRppSrnesVt-112" target="-YOq-ZwgpyRppSrnesVt-6">
          <mxGeometry relative="1" as="geometry">
            <Array as="points">
              <mxPoint x="-690" y="230" />
            </Array>
          </mxGeometry>
        </mxCell>
        <mxCell id="-YOq-ZwgpyRppSrnesVt-112" value="&quot;n&quot;" style="shape=parallelogram;perimeter=parallelogramPerimeter;whiteSpace=wrap;html=1;fixedSize=1;fontFamily=Helvetica;fontSize=12;fontColor=default;align=center;strokeColor=default;fillColor=default;" vertex="1" parent="WIyWlLk6GJQsqaUBKTNV-1">
          <mxGeometry x="-720" y="1055" width="60" height="30" as="geometry" />
        </mxCell>
        <mxCell id="-YOq-ZwgpyRppSrnesVt-153" style="edgeStyle=orthogonalEdgeStyle;rounded=0;orthogonalLoop=1;jettySize=auto;html=1;exitX=0;exitY=0.5;exitDx=0;exitDy=0;entryX=0;entryY=0.5;entryDx=0;entryDy=0;fontFamily=Helvetica;fontSize=12;fontColor=default;" edge="1" parent="WIyWlLk6GJQsqaUBKTNV-1" source="-YOq-ZwgpyRppSrnesVt-116" target="-YOq-ZwgpyRppSrnesVt-151">
          <mxGeometry relative="1" as="geometry">
            <Array as="points">
              <mxPoint x="-670" y="1152" />
              <mxPoint x="-670" y="1840" />
            </Array>
          </mxGeometry>
        </mxCell>
        <mxCell id="-YOq-ZwgpyRppSrnesVt-116" value="&quot;y&quot;" style="shape=parallelogram;perimeter=parallelogramPerimeter;whiteSpace=wrap;html=1;fixedSize=1;fontFamily=Helvetica;fontSize=12;fontColor=default;align=center;strokeColor=default;fillColor=default;" vertex="1" parent="WIyWlLk6GJQsqaUBKTNV-1">
          <mxGeometry x="-590" y="1134" width="60" height="35" as="geometry" />
        </mxCell>
        <mxCell id="-YOq-ZwgpyRppSrnesVt-147" value="" style="edgeStyle=orthogonalEdgeStyle;rounded=0;orthogonalLoop=1;jettySize=auto;html=1;fontFamily=Helvetica;fontSize=12;fontColor=default;" edge="1" parent="WIyWlLk6GJQsqaUBKTNV-1" source="-YOq-ZwgpyRppSrnesVt-119" target="-YOq-ZwgpyRppSrnesVt-146">
          <mxGeometry relative="1" as="geometry" />
        </mxCell>
        <mxCell id="-YOq-ZwgpyRppSrnesVt-150" style="edgeStyle=orthogonalEdgeStyle;rounded=0;orthogonalLoop=1;jettySize=auto;html=1;exitX=0.5;exitY=1;exitDx=0;exitDy=0;fontFamily=Helvetica;fontSize=12;fontColor=default;" edge="1" parent="WIyWlLk6GJQsqaUBKTNV-1" source="-YOq-ZwgpyRppSrnesVt-119" target="-YOq-ZwgpyRppSrnesVt-149">
          <mxGeometry relative="1" as="geometry" />
        </mxCell>
        <mxCell id="-YOq-ZwgpyRppSrnesVt-155" style="edgeStyle=orthogonalEdgeStyle;rounded=0;orthogonalLoop=1;jettySize=auto;html=1;exitX=0.5;exitY=1;exitDx=0;exitDy=0;fontFamily=Helvetica;fontSize=12;fontColor=default;" edge="1" parent="WIyWlLk6GJQsqaUBKTNV-1" source="-YOq-ZwgpyRppSrnesVt-119" target="-YOq-ZwgpyRppSrnesVt-154">
          <mxGeometry relative="1" as="geometry" />
        </mxCell>
        <mxCell id="-YOq-ZwgpyRppSrnesVt-119" value="input(&quot;Perform another operation? y/n&quot;)" style="rounded=0;whiteSpace=wrap;html=1;strokeColor=default;fontFamily=Helvetica;fontSize=12;fontColor=default;fillColor=default;" vertex="1" parent="WIyWlLk6GJQsqaUBKTNV-1">
          <mxGeometry x="-90" y="1480" width="180" height="90" as="geometry" />
        </mxCell>
        <mxCell id="-YOq-ZwgpyRppSrnesVt-142" style="edgeStyle=orthogonalEdgeStyle;rounded=0;orthogonalLoop=1;jettySize=auto;html=1;exitX=0.5;exitY=1;exitDx=0;exitDy=0;fontFamily=Helvetica;fontSize=12;fontColor=default;" edge="1" parent="WIyWlLk6GJQsqaUBKTNV-1" source="-YOq-ZwgpyRppSrnesVt-120">
          <mxGeometry relative="1" as="geometry">
            <mxPoint x="45" y="1480" as="targetPoint" />
          </mxGeometry>
        </mxCell>
        <mxCell id="-YOq-ZwgpyRppSrnesVt-120" value="print num3" style="whiteSpace=wrap;html=1;rounded=0;" vertex="1" parent="WIyWlLk6GJQsqaUBKTNV-1">
          <mxGeometry x="160" y="1210" width="120" height="60" as="geometry" />
        </mxCell>
        <mxCell id="-YOq-ZwgpyRppSrnesVt-143" style="edgeStyle=orthogonalEdgeStyle;rounded=0;orthogonalLoop=1;jettySize=auto;html=1;exitX=0.5;exitY=1;exitDx=0;exitDy=0;entryX=1;entryY=0.25;entryDx=0;entryDy=0;fontFamily=Helvetica;fontSize=12;fontColor=default;" edge="1" parent="WIyWlLk6GJQsqaUBKTNV-1" source="-YOq-ZwgpyRppSrnesVt-122" target="-YOq-ZwgpyRppSrnesVt-119">
          <mxGeometry relative="1" as="geometry" />
        </mxCell>
        <mxCell id="-YOq-ZwgpyRppSrnesVt-122" value="print num3" style="whiteSpace=wrap;html=1;rounded=0;" vertex="1" parent="WIyWlLk6GJQsqaUBKTNV-1">
          <mxGeometry x="310" y="1210" width="120" height="60" as="geometry" />
        </mxCell>
        <mxCell id="-YOq-ZwgpyRppSrnesVt-144" style="edgeStyle=orthogonalEdgeStyle;rounded=0;orthogonalLoop=1;jettySize=auto;html=1;exitX=0.5;exitY=1;exitDx=0;exitDy=0;entryX=1;entryY=0.5;entryDx=0;entryDy=0;fontFamily=Helvetica;fontSize=12;fontColor=default;" edge="1" parent="WIyWlLk6GJQsqaUBKTNV-1" source="-YOq-ZwgpyRppSrnesVt-124" target="-YOq-ZwgpyRppSrnesVt-119">
          <mxGeometry relative="1" as="geometry" />
        </mxCell>
        <mxCell id="-YOq-ZwgpyRppSrnesVt-124" value="print num3" style="whiteSpace=wrap;html=1;rounded=0;" vertex="1" parent="WIyWlLk6GJQsqaUBKTNV-1">
          <mxGeometry x="460" y="1210" width="120" height="60" as="geometry" />
        </mxCell>
        <mxCell id="-YOq-ZwgpyRppSrnesVt-136" style="edgeStyle=orthogonalEdgeStyle;rounded=0;orthogonalLoop=1;jettySize=auto;html=1;exitX=0.5;exitY=1;exitDx=0;exitDy=0;entryX=0;entryY=0.75;entryDx=0;entryDy=0;fontFamily=Helvetica;fontSize=12;fontColor=default;" edge="1" parent="WIyWlLk6GJQsqaUBKTNV-1" source="-YOq-ZwgpyRppSrnesVt-126" target="-YOq-ZwgpyRppSrnesVt-119">
          <mxGeometry relative="1" as="geometry" />
        </mxCell>
        <mxCell id="-YOq-ZwgpyRppSrnesVt-126" value="print num3" style="whiteSpace=wrap;html=1;rounded=0;" vertex="1" parent="WIyWlLk6GJQsqaUBKTNV-1">
          <mxGeometry x="-610" y="1210" width="120" height="60" as="geometry" />
        </mxCell>
        <mxCell id="-YOq-ZwgpyRppSrnesVt-145" style="edgeStyle=orthogonalEdgeStyle;rounded=0;orthogonalLoop=1;jettySize=auto;html=1;exitX=0.5;exitY=1;exitDx=0;exitDy=0;entryX=1;entryY=0.75;entryDx=0;entryDy=0;fontFamily=Helvetica;fontSize=12;fontColor=default;" edge="1" parent="WIyWlLk6GJQsqaUBKTNV-1" source="-YOq-ZwgpyRppSrnesVt-128" target="-YOq-ZwgpyRppSrnesVt-119">
          <mxGeometry relative="1" as="geometry" />
        </mxCell>
        <mxCell id="-YOq-ZwgpyRppSrnesVt-128" value="print num3" style="whiteSpace=wrap;html=1;rounded=0;" vertex="1" parent="WIyWlLk6GJQsqaUBKTNV-1">
          <mxGeometry x="620" y="1210" width="120" height="60" as="geometry" />
        </mxCell>
        <mxCell id="-YOq-ZwgpyRppSrnesVt-148" style="edgeStyle=orthogonalEdgeStyle;rounded=0;orthogonalLoop=1;jettySize=auto;html=1;exitX=0;exitY=0.5;exitDx=0;exitDy=0;fontFamily=Helvetica;fontSize=12;fontColor=default;entryX=0;entryY=0.5;entryDx=0;entryDy=0;" edge="1" parent="WIyWlLk6GJQsqaUBKTNV-1" source="-YOq-ZwgpyRppSrnesVt-146" target="-YOq-ZwgpyRppSrnesVt-6">
          <mxGeometry relative="1" as="geometry">
            <mxPoint x="-70" y="230" as="targetPoint" />
            <Array as="points">
              <mxPoint x="-750" y="1690" />
              <mxPoint x="-750" y="230" />
            </Array>
          </mxGeometry>
        </mxCell>
        <mxCell id="-YOq-ZwgpyRppSrnesVt-146" value="&quot;y&quot;" style="shape=parallelogram;perimeter=parallelogramPerimeter;whiteSpace=wrap;html=1;fixedSize=1;fontFamily=Helvetica;fontSize=12;fontColor=default;align=center;strokeColor=default;fillColor=default;" vertex="1" parent="WIyWlLk6GJQsqaUBKTNV-1">
          <mxGeometry x="-200" y="1660" width="120" height="60" as="geometry" />
        </mxCell>
        <mxCell id="-YOq-ZwgpyRppSrnesVt-152" style="edgeStyle=orthogonalEdgeStyle;rounded=0;orthogonalLoop=1;jettySize=auto;html=1;exitX=0.5;exitY=1;exitDx=0;exitDy=0;entryX=0.5;entryY=0;entryDx=0;entryDy=0;fontFamily=Helvetica;fontSize=12;fontColor=default;" edge="1" parent="WIyWlLk6GJQsqaUBKTNV-1" source="-YOq-ZwgpyRppSrnesVt-149" target="-YOq-ZwgpyRppSrnesVt-151">
          <mxGeometry relative="1" as="geometry" />
        </mxCell>
        <mxCell id="-YOq-ZwgpyRppSrnesVt-149" value="&quot;n&quot;" style="shape=parallelogram;perimeter=parallelogramPerimeter;whiteSpace=wrap;html=1;fixedSize=1;fontFamily=Helvetica;fontSize=12;fontColor=default;align=center;strokeColor=default;fillColor=default;" vertex="1" parent="WIyWlLk6GJQsqaUBKTNV-1">
          <mxGeometry x="-60" y="1660" width="120" height="60" as="geometry" />
        </mxCell>
        <mxCell id="-YOq-ZwgpyRppSrnesVt-151" value="end" style="rounded=0;whiteSpace=wrap;html=1;strokeColor=default;fontFamily=Helvetica;fontSize=12;fontColor=default;fillColor=default;" vertex="1" parent="WIyWlLk6GJQsqaUBKTNV-1">
          <mxGeometry x="-60" y="1810" width="120" height="60" as="geometry" />
        </mxCell>
        <mxCell id="-YOq-ZwgpyRppSrnesVt-156" style="edgeStyle=orthogonalEdgeStyle;rounded=0;orthogonalLoop=1;jettySize=auto;html=1;exitX=1;exitY=0.5;exitDx=0;exitDy=0;entryX=0.75;entryY=1;entryDx=0;entryDy=0;fontFamily=Helvetica;fontSize=12;fontColor=default;" edge="1" parent="WIyWlLk6GJQsqaUBKTNV-1" source="-YOq-ZwgpyRppSrnesVt-154" target="-YOq-ZwgpyRppSrnesVt-119">
          <mxGeometry relative="1" as="geometry">
            <Array as="points">
              <mxPoint x="290" y="1690" />
              <mxPoint x="290" y="1600" />
              <mxPoint x="45" y="1600" />
            </Array>
          </mxGeometry>
        </mxCell>
        <mxCell id="-YOq-ZwgpyRppSrnesVt-154" value="else" style="shape=parallelogram;perimeter=parallelogramPerimeter;whiteSpace=wrap;html=1;fixedSize=1;fontFamily=Helvetica;fontSize=12;fontColor=default;align=center;strokeColor=default;fillColor=default;" vertex="1" parent="WIyWlLk6GJQsqaUBKTNV-1">
          <mxGeometry x="80" y="1660" width="120" height="60" as="geometry" />
        </mxCell>
      </root>
    </mxGraphModel>
  </diagram>
</mxfile>
